<svg width="200" height="38" viewBox="0 0 200 38" fill="none" xmlns="http://www.w3.org/2000/svg">
<path d="M193.792 36.2314V32.7178C192.295 34.7914 189.53 36.8074 185.152 36.8074C179.219 36.8074 174.957 33.5242 174.957 28.1098C174.957 24.193 177.203 19.9882 186.592 18.8362L193.101 18.0298V17.7418C193.101 14.4586 191.315 12.2122 187.629 12.2122C184.115 12.2122 182.387 14.0554 181.754 16.9354L175.591 15.6106C176.743 9.9658 181.293 6.625 187.744 6.625C195.117 6.625 199.84 11.0026 199.783 17.857V36.2314H193.792ZM181.523 27.5914C181.523 29.8954 183.309 31.393 186.419 31.393C189.991 31.393 193.101 29.2618 193.101 25.2298V22.753L187.283 23.5594C183.712 24.0202 181.523 25.2298 181.523 27.5914Z" fill="#2F703F"/>
<path d="M164.054 36.2307V7.48828H170.966V36.2307H164.054Z" fill="#2F703F"/>
<path d="M143.832 36.0432L132.946 7.30078H139.973L147.403 28.2672L154.891 7.30078H161.919L151.032 36.0432H143.832Z" fill="#2F703F"/>
<path d="M125.964 36.2314V32.7178C124.466 34.7914 121.701 36.8074 117.324 36.8074C111.391 36.8074 107.129 33.5242 107.129 28.1098C107.129 24.193 109.375 19.9882 118.764 18.8362L125.273 18.0298V17.7418C125.273 14.4586 123.487 12.2122 119.801 12.2122C116.287 12.2122 114.559 14.0554 113.925 16.9354L107.762 15.6106C108.914 9.9658 113.465 6.625 119.916 6.625C127.289 6.625 132.012 11.0026 131.954 17.857V36.2314H125.964ZM113.695 27.5914C113.695 29.8954 115.481 31.393 118.591 31.393C122.162 31.393 125.273 29.2618 125.273 25.2298V22.753L119.455 23.5594C115.884 24.0202 113.695 25.2298 113.695 27.5914Z" fill="#2F703F"/>
<path d="M100.813 36.9792C95.168 36.9792 91.6544 33.9264 91.6544 28.224V13.1904H86.2976V7.488H91.6544V0H98.5664V7.488H106.515V13.1904H98.5664V27.648C98.5664 29.4336 99.4304 30.9312 102.138 30.9312C103.808 30.9312 105.19 30.24 105.766 29.8944L107.091 35.3088C105.997 36 104.038 36.9792 100.813 36.9792Z" fill="#2F703F"/>
<path d="M79.2616 36.9792C73.6168 36.9792 70.1032 33.9264 70.1032 28.224V13.1904H64.7464V7.488H70.1032V0H77.0152V7.488H84.964V13.1904H77.0152V27.648C77.0152 29.4336 77.8792 30.9312 80.5864 30.9312C82.2568 30.9312 83.6392 30.24 84.2152 29.8944L85.54 35.3088C84.4456 36 82.4872 36.9792 79.2616 36.9792Z" fill="#2F703F"/>
<rect x="3.6" y="3.6" width="55.2" height="30" rx="15" stroke="#327A4A" stroke-width="7.2"/>
</svg>
