<svg width="159" height="30" viewBox="0 0 159 30" fill="none" xmlns="http://www.w3.org/2000/svg">
<path d="M149.195 5.77975C152.05 5.77975 154.344 6.62621 155.913 8.08737C157.477 9.54467 158.368 11.6553 158.346 14.2807V28.5044H154.513V24.6889L153.644 25.8921C152.528 27.4372 150.456 28.9653 147.122 28.9653C144.833 28.9653 142.911 28.3322 141.57 27.2212C140.239 26.1178 139.446 24.5153 139.446 22.4868C139.446 21.0172 139.864 19.5293 141.137 18.2924C142.423 17.0445 144.634 15.9981 148.332 15.5444H148.333L153.54 14.8999L153.961 14.8471V14.1928C153.961 12.7965 153.58 11.5595 152.749 10.6684C151.912 9.77176 150.678 9.28954 149.103 9.28952C147.611 9.28952 146.442 9.68225 145.575 10.4311C144.824 11.0797 144.34 11.9605 144.05 12.9809L140.049 12.1206C140.542 10.1907 141.575 8.65953 143.029 7.5864C144.602 6.42588 146.697 5.7798 149.195 5.77975ZM153.415 17.726L148.765 18.3706C147.309 18.5585 146.072 18.9054 145.187 19.4887C144.276 20.0898 143.739 20.9462 143.739 22.0727C143.739 23.13 144.155 24.0333 144.946 24.6606C145.724 25.2777 146.821 25.5932 148.135 25.5932C149.655 25.5932 151.108 25.1403 152.19 24.2241C153.281 23.2996 153.961 21.9307 153.961 20.1831V17.6508L153.415 17.726Z" fill="white" stroke="white" stroke-width="0.96"/>
<path d="M135.293 6.47095V28.5042H130.724V6.47095H135.293Z" fill="white" stroke="white" stroke-width="0.96"/>
<path d="M110.708 6.47095L116.539 22.9241L116.99 24.1956L117.444 22.925L123.32 6.47095H127.909L119.563 28.5042H114.467L106.121 6.47095H110.708Z" fill="white" stroke="white" stroke-width="0.96"/>
<path d="M94.9323 5.77975C97.7876 5.77975 100.081 6.62621 101.65 8.08737C103.215 9.54467 104.106 11.6553 104.084 14.2807V28.5044H100.251V24.6889L99.3815 25.8921C98.2656 27.4372 96.1936 28.9653 92.859 28.9653C90.5705 28.9653 88.648 28.3322 87.3073 27.2212C85.9758 26.1178 85.1832 24.5153 85.1832 22.4868C85.1833 21.0172 85.6008 19.5293 86.8746 18.2924C88.16 17.0445 90.3715 15.9981 94.069 15.5444H94.0699L99.277 14.8999L99.6979 14.8471V14.1928C99.6979 12.7965 99.3177 11.5595 98.486 10.6684C97.6491 9.77176 96.4149 9.28954 94.8405 9.28952C93.3487 9.28952 92.1792 9.68225 91.3121 10.4311C90.5613 11.0797 90.0772 11.9605 89.7877 12.9809L85.7867 12.1206C86.2793 10.1907 87.312 8.65953 88.7662 7.5864C90.3389 6.42588 92.4339 5.7798 94.9323 5.77975ZM99.152 17.726L94.5026 18.3706C93.0462 18.5585 91.8091 18.9054 90.9244 19.4887C90.013 20.0898 89.4762 20.9462 89.4762 22.0727C89.4763 23.13 89.8922 24.0333 90.6832 24.6606C91.4615 25.2777 92.5579 25.5932 93.8727 25.5932C95.3923 25.5932 96.8457 25.1403 97.9274 24.2241C99.0186 23.2996 99.6979 21.9307 99.6979 20.1831V17.6508L99.152 17.726Z" fill="white" stroke="white" stroke-width="0.96"/>
<path d="M77.373 0.48053V6.47076H83.7324V10.0723H77.373V22.1182C77.373 22.902 77.562 23.6955 78.1171 24.294C78.6787 24.8994 79.5398 25.2246 80.7099 25.2247C81.7635 25.2247 82.6777 24.91 83.2919 24.6241L84.122 28.0176C83.2622 28.5112 81.8494 29.1036 79.6503 29.1036C77.4753 29.1036 75.7747 28.5155 74.621 27.4405C73.4725 26.3703 72.8036 24.7591 72.8036 22.5792V10.0723H68.5185V6.47076H72.8036V0.48053H77.373Z" fill="white" stroke="white" stroke-width="0.96"/>
<path d="M60.132 0.480499V6.47073H66.4913V10.0723H60.132V22.1182C60.132 22.902 60.321 23.6955 60.8761 24.294C61.4377 24.8994 62.2988 25.2246 63.4689 25.2246C64.5225 25.2246 65.4366 24.91 66.0509 24.6241L66.881 28.0176C66.0212 28.5111 64.6083 29.1035 62.4093 29.1035C60.2343 29.1035 58.5337 28.5155 57.38 27.4405C56.2315 26.3703 55.5626 24.7591 55.5626 22.5791V10.0723H51.2775V6.47073H55.5626V0.480499H60.132Z" fill="white" stroke="white" stroke-width="0.96"/>
<rect x="2.88" y="2.88" width="44.16" height="24" rx="12" stroke="white" stroke-width="5.76"/>
</svg>
