<svg width="24" height="24" viewBox="0 0 24 24" fill="none" xmlns="http://www.w3.org/2000/svg">
<path d="M7.20039 6.12023V7.12023C7.55606 7.12023 7.88496 6.93132 8.06417 6.62411L7.20039 6.12023ZM16.8004 6.12023L15.9366 6.6241C16.1158 6.93132 16.4447 7.12023 16.8004 7.12023V6.12023ZM15.815 4.43094L14.9512 4.93482L15.815 4.43094ZM8.18581 4.43095L7.32203 3.92707L8.18581 4.43095ZM2.40039 18.3602H3.40039V8.52023H2.40039H1.40039V18.3602H2.40039ZM4.80039 6.12023V7.12023H7.20039V6.12023V5.12023H4.80039V6.12023ZM7.20039 6.12023L8.06417 6.62411L9.04959 4.93482L8.18581 4.43095L7.32203 3.92707L6.33661 5.61636L7.20039 6.12023ZM10.2589 3.24023V4.24023H13.7419V3.24023V2.24023H10.2589V3.24023ZM15.815 4.43094L14.9512 4.93482L15.9366 6.6241L16.8004 6.12023L17.6642 5.61636L16.6787 3.92707L15.815 4.43094ZM16.8004 6.12023V7.12023H19.2004V6.12023V5.12023H16.8004V6.12023ZM21.6004 8.52023H20.6004V18.3602H21.6004H22.6004V8.52023H21.6004ZM21.6004 18.3602H20.6004C20.6004 19.1334 19.9736 19.7602 19.2004 19.7602V20.7602V21.7602C21.0782 21.7602 22.6004 20.238 22.6004 18.3602H21.6004ZM19.2004 6.12023V7.12023C19.9736 7.12023 20.6004 7.74704 20.6004 8.52023H21.6004H22.6004C22.6004 6.64247 21.0782 5.12023 19.2004 5.12023V6.12023ZM2.40039 8.52023H3.40039C3.40039 7.74703 4.02719 7.12023 4.80039 7.12023V6.12023V5.12023C2.92262 5.12023 1.40039 6.64246 1.40039 8.52023H2.40039ZM4.80039 20.7602V19.7602C4.02719 19.7602 3.40039 19.1334 3.40039 18.3602H2.40039H1.40039C1.40039 20.238 2.92262 21.7602 4.80039 21.7602V20.7602ZM15.6004 12.8402H14.6004C14.6004 14.2762 13.4363 15.4402 12.0004 15.4402V16.4402V17.4402C14.5409 17.4402 16.6004 15.3807 16.6004 12.8402H15.6004ZM12.0004 16.4402V15.4402C10.5644 15.4402 9.40039 14.2762 9.40039 12.8402H8.40039H7.40039C7.40039 15.3807 9.45988 17.4402 12.0004 17.4402V16.4402ZM8.40039 12.8402H9.40039C9.40039 11.4043 10.5644 10.2402 12.0004 10.2402V9.24023V8.24023C9.45988 8.24023 7.40039 10.2997 7.40039 12.8402H8.40039ZM12.0004 9.24023V10.2402C13.4363 10.2402 14.6004 11.4043 14.6004 12.8402H15.6004H16.6004C16.6004 10.2997 14.5409 8.24023 12.0004 8.24023V9.24023ZM19.2004 20.7602V19.7602H4.80039V20.7602V21.7602H19.2004V20.7602ZM13.7419 3.24023V4.24023C14.2398 4.24023 14.7003 4.50471 14.9512 4.93482L15.815 4.43094L16.6787 3.92707C16.0694 2.88253 14.9512 2.24023 13.7419 2.24023V3.24023ZM8.18581 4.43095L9.04959 4.93482C9.30048 4.50471 9.76095 4.24023 10.2589 4.24023V3.24023V2.24023C9.04961 2.24023 7.93134 2.88253 7.32203 3.92707L8.18581 4.43095Z" fill="#433E36"/>
</svg>
