<svg preserveAspectRatio="none" width="100%" height="100%" overflow="visible" style="display: block;" viewBox="0 0 117 117" fill="none" xmlns="http://www.w3.org/2000/svg">
<g id="Subtract" filter="url(#filter0_d_0_19)">
<mask id="path-1-inside-1_0_19" fill="white">
<path d="M58.5 5C86.9427 5 110 28.0573 110 56.5C110 84.9427 86.9427 108 58.5 108C30.0573 108 7 84.9427 7 56.5C7 28.0573 30.0573 5 58.5 5ZM76.3848 38.7871C60.081 22.4834 38.8956 17.2353 29.0654 27.0654C19.2353 36.8956 24.4834 58.081 40.7871 74.3848C57.0909 90.6886 78.2762 95.9366 88.1064 86.1064C97.9366 76.2762 92.6886 55.0909 76.3848 38.7871Z"/>
</mask>
<path d="M58.5 5C86.9427 5 110 28.0573 110 56.5C110 84.9427 86.9427 108 58.5 108C30.0573 108 7 84.9427 7 56.5C7 28.0573 30.0573 5 58.5 5ZM76.3848 38.7871C60.081 22.4834 38.8956 17.2353 29.0654 27.0654C19.2353 36.8956 24.4834 58.081 40.7871 74.3848C57.0909 90.6886 78.2762 95.9366 88.1064 86.1064C97.9366 76.2762 92.6886 55.0909 76.3848 38.7871Z" fill="url(#paint0_linear_0_19)" shape-rendering="crispEdges"/>
<path d="M76.3848 38.7871L77.0919 38.08V38.08L76.3848 38.7871ZM29.0654 27.0654L28.3583 26.3583V26.3583L29.0654 27.0654ZM40.7871 74.3848L40.08 75.0919V75.0919L40.7871 74.3848ZM88.1064 86.1064L88.8136 86.8136V86.8136L88.1064 86.1064ZM58.5 5V6C86.3904 6 109 28.6096 109 56.5H110H111C111 27.5051 87.4949 4 58.5 4V5ZM110 56.5H109C109 84.3904 86.3904 107 58.5 107V108V109C87.4949 109 111 85.4949 111 56.5H110ZM58.5 108V107C30.6096 107 8 84.3904 8 56.5H7H6C6 85.4949 29.5051 109 58.5 109V108ZM7 56.5H8C8 28.6096 30.6096 6 58.5 6V5V4C29.5051 4 6 27.5051 6 56.5H7ZM76.3848 38.7871L77.0919 38.08C68.8332 29.8214 59.3055 24.3273 50.5379 22.1554C41.792 19.9889 33.6177 21.099 28.3583 26.3583L29.0654 27.0654L29.7725 27.7725C34.3434 23.2017 41.6768 22.0208 50.057 24.0967C58.4156 26.1673 67.6325 31.4491 75.6777 39.4942L76.3848 38.7871ZM29.0654 27.0654L28.3583 26.3583C23.099 31.6177 21.9889 39.792 24.1554 48.5379C26.3273 57.3055 31.8214 66.8332 40.08 75.0919L40.7871 74.3848L41.4942 73.6777C33.4491 65.6325 28.1673 56.4156 26.0967 48.057C24.0208 39.6768 25.2017 32.3434 29.7725 27.7725L29.0654 27.0654ZM40.7871 74.3848L40.08 75.0919C48.3386 83.3505 57.8663 88.8446 66.6339 91.0165C75.3798 93.183 83.5542 92.0729 88.8136 86.8136L88.1064 86.1064L87.3993 85.3993C82.8285 89.9702 75.4951 91.1511 67.1148 89.0752C58.7563 87.0046 49.5394 81.7228 41.4942 73.6777L40.7871 74.3848ZM88.1064 86.1064L88.8136 86.8136C94.0729 81.5542 95.183 73.3798 93.0165 64.6339C90.8446 55.8663 85.3505 46.3386 77.0919 38.08L76.3848 38.7871L75.6777 39.4942C83.7228 47.5394 89.0046 56.7563 91.0752 65.1148C93.1511 73.4951 91.9702 80.8285 87.3993 85.3993L88.1064 86.1064Z" fill="var(--stroke-0, white)" mask="url(#path-1-inside-1_0_19)"/>
</g>
<defs>
<filter id="filter0_d_0_19" x="0" y="0" width="117" height="117" filterUnits="userSpaceOnUse" color-interpolation-filters="sRGB">
<feFlood flood-opacity="0" result="BackgroundImageFix"/>
<feColorMatrix in="SourceAlpha" type="matrix" values="0 0 0 0 0 0 0 0 0 0 0 0 0 0 0 0 0 0 127 0" result="hardAlpha"/>
<feOffset dy="2"/>
<feGaussianBlur stdDeviation="3.5"/>
<feComposite in2="hardAlpha" operator="out"/>
<feColorMatrix type="matrix" values="0 0 0 0 0.776471 0 0 0 0 0.792157 0 0 0 0 0.772549 0 0 0 1 0"/>
<feBlend mode="normal" in2="BackgroundImageFix" result="effect1_dropShadow_0_19"/>
<feBlend mode="normal" in="SourceGraphic" in2="effect1_dropShadow_0_19" result="shape"/>
</filter>
<linearGradient id="paint0_linear_0_19" x1="19.5" y1="0.5" x2="93.5" y2="108" gradientUnits="userSpaceOnUse">
<stop stop-color="white" stop-opacity="0.9"/>
<stop offset="0.533654" stop-color="white"/>
<stop offset="1" stop-color="white" stop-opacity="0.78"/>
</linearGradient>
</defs>
</svg>
